<svg xmlns="http://www.w3.org/2000/svg" width="1200" height="675" viewBox="0 0 1200 675" role="img" aria-label="MScom.lk Commerce classroom visual">
  <defs>
    <linearGradient id="bg" x1="0" x2="1" y1="0" y2="1">
      <stop offset="0" stop-color="#06261f"/>
      <stop offset="0.58" stop-color="#0b7a59"/>
      <stop offset="1" stop-color="#d8a72e"/>
    </linearGradient>
    <filter id="blur"><feGaussianBlur stdDeviation="18"/></filter>
  </defs>
  <rect width="1200" height="675" fill="url(#bg)"/>
  <circle cx="1010" cy="80" r="150" fill="#fff" opacity=".08" filter="url(#blur)"/>
  <rect x="70" y="70" width="470" height="520" rx="18" fill="#fff" opacity=".18"/>
  <text x="110" y="170" fill="#fff" font-family="Arial, sans-serif" font-size="66" font-weight="800">MScom.lk</text>
  <text x="112" y="250" fill="#f3cf69" font-family="Arial, sans-serif" font-size="38" font-weight="800">A/L Commerce</text>
  <text x="112" y="304" fill="#fff" font-family="Arial, sans-serif" font-size="38" font-weight="800">Business Studies</text>
  <text x="115" y="370" fill="#fff" opacity=".78" font-family="Arial, sans-serif" font-size="24">Online + Physical Classes</text>
  <rect x="650" y="90" width="390" height="230" rx="18" fill="#fff" opacity=".16"/>
  <polyline points="700,250 780,175 865,210 985,130" fill="none" stroke="#f3cf69" stroke-width="8" stroke-linecap="round" stroke-linejoin="round"/>
  <g fill="#f3cf69"><circle cx="700" cy="250" r="12"/><circle cx="780" cy="175" r="12"/><circle cx="865" cy="210" r="12"/><circle cx="985" cy="130" r="12"/></g>
  <g fill="#f3cf69" opacity=".92"><rect x="680" y="470" width="42" height="65" rx="6"/><rect x="750" y="438" width="42" height="97" rx="6"/><rect x="820" y="408" width="42" height="127" rx="6"/><rect x="890" y="382" width="42" height="153" rx="6"/><rect x="960" y="350" width="42" height="185" rx="6"/></g>
  <text x="665" y="365" fill="#fff" font-family="Arial, sans-serif" font-size="25" font-weight="700">Exam-ready notes</text>
  <text x="665" y="405" fill="#fff" opacity=".76" font-family="Arial, sans-serif" font-size="22">Past paper strategy</text>
  <text x="665" y="445" fill="#fff" opacity=".76" font-family="Arial, sans-serif" font-size="22">Mobile dashboard</text>
  <rect x="130" y="510" width="870" height="70" rx="14" fill="#fff" opacity=".86"/>
  <g fill="#071612" opacity=".92">
    <circle cx="220" cy="410" r="31"/><circle cx="410" cy="410" r="31"/><circle cx="600" cy="410" r="31"/><circle cx="790" cy="410" r="31"/>
  </g>
  <g fill="#fff" opacity=".9">
    <rect x="195" y="475" width="110" height="55" rx="10"/><rect x="385" y="475" width="110" height="55" rx="10"/><rect x="575" y="475" width="110" height="55" rx="10"/><rect x="765" y="475" width="110" height="55" rx="10"/>
  </g>
</svg>
